<svg xmlns="http://www.w3.org/2000/svg" xmlns:xlink="http://www.w3.org/1999/xlink" width="200" height="200" viewBox="0 0 100 100"><defs><radialGradient xlink:href="#a" id="b" gradientUnits="userSpaceOnUse" cx="46.539" cy="33.229" fx="46.539" fy="33.229" r="6.459"/><radialGradient xlink:href="#a" id="c" gradientUnits="userSpaceOnUse" cx="46.539" cy="33.229" fx="46.539" fy="33.229" r="6.459"/><radialGradient xlink:href="#a" id="d" gradientUnits="userSpaceOnUse" cx="46.539" cy="33.229" fx="46.539" fy="33.229" r="6.459"/><radialGradient xlink:href="#a" id="e" gradientUnits="userSpaceOnUse" cx="46.539" cy="33.229" fx="46.539" fy="33.229" r="6.459"/><linearGradient id="a"><stop style="stop-color:#fff;stop-opacity:1" offset="0"/><stop style="stop-color:#fff;stop-opacity:1" offset="1"/></linearGradient></defs><path style="opacity:.5;fill:none;stroke:#fff;stroke-width:1px;stroke-linecap:butt;stroke-linejoin:miter;stroke-opacity:1" d="m72.935 972.004-1.977 34.71" transform="translate(-34.5 -949.362)"/><path transform="translate(-34.5 3)" d="M52.443 35.042a5.96 5.96 0 1 1-11.919 0 5.96 5.96 0 0 1 11.92 0z" style="fill:url(#b);fill-opacity:1;stroke:#fff;stroke-width:1;stroke-linejoin:round;stroke-miterlimit:4;stroke-opacity:1;stroke-dasharray:none"/><path style="fill:url(#c);fill-opacity:1;stroke:#fff;stroke-width:1;stroke-linejoin:round;stroke-miterlimit:4;stroke-opacity:1;stroke-dasharray:none" d="M52.443 35.042a5.96 5.96 0 1 1-11.919 0 5.96 5.96 0 0 1 11.92 0z" transform="translate(41.51 -7.325)"/><path transform="translate(12.952 47.422)" d="M52.443 35.042a5.96 5.96 0 1 1-11.919 0 5.96 5.96 0 0 1 11.92 0z" style="fill:url(#d);fill-opacity:1;stroke:#fff;stroke-width:1;stroke-linejoin:round;stroke-miterlimit:4;stroke-opacity:1;stroke-dasharray:none"/><path style="opacity:.5;fill:url(#e);fill-opacity:1;stroke:#fff;stroke-width:1;stroke-linejoin:round;stroke-miterlimit:4;stroke-opacity:1;stroke-dasharray:none" d="M52.443 35.042a5.96 5.96 0 1 1-11.919 0 5.96 5.96 0 0 1 11.92 0z" transform="translate(-10.554 27.87)"/><path d="m45.914 993.487-1.977 34.71m52.284-36.641-1.977 34.71m28.12-42.884-1.977 34.71" style="fill:none;stroke:#fff;stroke-width:1px;stroke-linecap:butt;stroke-linejoin:miter;stroke-opacity:1" transform="translate(-34.5 -949.362)"/><path transform="translate(-34.5 3)" d="m44.156 75.395 43.498 3.955" style="fill:none;stroke:#fff;stroke-width:1px;stroke-linecap:butt;stroke-linejoin:miter;stroke-opacity:1"/><path style="fill:none;stroke:#fff;stroke-width:1px;stroke-linecap:butt;stroke-linejoin:miter;stroke-opacity:1" d="m72.715 972.397 43.498 3.955m-39.763 37.126 43.497 3.955m-67.443-29.438 43.498 3.954" transform="translate(-34.5 -949.362)"/><path transform="translate(-34.5 3)" d="m44.156 75.176 21.31-11.643" style="fill:none;stroke:#fff;stroke-width:1px;stroke-linecap:butt;stroke-linejoin:miter;stroke-opacity:1"/><path style="fill:none;stroke:#fff;stroke-width:1px;stroke-linecap:butt;stroke-linejoin:miter;stroke-opacity:1" d="m51.406 984.04 21.31-11.643m23.505 19.772 21.31-11.643m-18.454 48.55 21.31-11.643" transform="translate(-34.5 -949.362)"/><path transform="translate(-14.5 3)" d="M22.072 87.838c40.09-5.856 51.802-19.82 43.243-36.487-8.558-16.666 14.415-32.432 36.937-39.64" style="fill:none;stroke:#fff;stroke-width:4;stroke-linecap:butt;stroke-linejoin:miter;stroke-miterlimit:4;stroke-opacity:1;stroke-dasharray:none"/><path transform="translate(-14.5 3)" d="M102.517 9.324s-10.163-1.338-13.667.414c-3.504 1.751-2.807 3.595-3.44 6.52-.533 2.469.356 3.61 2.071 3.98 1.392.302 3.387 2.516 6.652 1.265 3.251-1.245 4.936-2.81 9.724-8.083z" style="fill:#fff;fill-opacity:1;stroke:#fff;stroke-width:1px;stroke-linecap:butt;stroke-linejoin:miter;stroke-opacity:1"/><path transform="translate(-14.5 3)" d="M108.375 7.949c-.716 1.433-5.016 3.344-5.016 3.344s4.538-1.194 6.37-.478" style="fill:none;stroke:#fff;stroke-width:1px;stroke-linecap:butt;stroke-linejoin:miter;stroke-opacity:1"/></svg>